<svg xmlns="http://www.w3.org/2000/svg" viewBox="0 0 512 512" role="img" aria-label="Freeze Trap">
  <defs>
    <linearGradient id="bg" x1="0" y1="0" x2="1" y2="1">
      <stop offset="0" stop-color="#dff7ff"/>
      <stop offset="0.48" stop-color="#7dd3fc"/>
      <stop offset="1" stop-color="#0f172a"/>
    </linearGradient>
    <filter id="shadow" x="-20%" y="-20%" width="140%" height="140%">
      <feDropShadow dx="0" dy="18" stdDeviation="18" flood-color="#020617" flood-opacity="0.35"/>
    </filter>
  </defs>
  <rect width="512" height="512" rx="48" fill="url(#bg)"/>
  <g filter="url(#shadow)">
    <path d="M86 170c58-48 142-48 200 0s142 48 200 0v172c-58 48-142 48-200 0s-142-48-200 0z" fill="#e0f2fe" opacity="0.75"/>
    <path d="M74 134h364v244H74z" fill="none" stroke="#020617" stroke-width="18" stroke-linejoin="round"/>
    <path d="M74 208h364M74 286h364M164 134v244M256 134v244M348 134v244" fill="none" stroke="#ffffff" stroke-width="10" opacity="0.85"/>
    <circle cx="176" cy="230" r="30" fill="#f97316" stroke="#020617" stroke-width="10"/>
    <circle cx="318" cy="282" r="34" fill="#22c55e" stroke="#020617" stroke-width="10"/>
    <circle cx="250" cy="184" r="23" fill="#facc15" stroke="#020617" stroke-width="10"/>
    <path d="M122 352c62-70 128-112 262-188" fill="none" stroke="#020617" stroke-width="16" stroke-linecap="round"/>
    <path d="M122 352c62-70 128-112 262-188" fill="none" stroke="#67e8f9" stroke-width="8" stroke-linecap="round"/>
  </g>
  <text x="256" y="454" text-anchor="middle" font-family="Verdana, sans-serif" font-size="48" font-weight="900" fill="#f8fafc" stroke="#020617" stroke-width="5" paint-order="stroke">FREEZE TRAP</text>
</svg>
