<svg xmlns="http://www.w3.org/2000/svg" viewBox="0 0 720 900" role="img" aria-labelledby="title desc"><title id="title">Connect Four Game cover</title><desc id="desc">Game icon for Connect Four Game.</desc><rect width="720" height="900" fill="#1d4ed8"/><circle cx="96" cy="118" r="110" fill="#f8fafc" opacity="0.11"/><circle cx="616" cy="184" r="142" fill="#ef4444" opacity="0.1"/><rect x="64" y="96" width="592" height="560" rx="36" fill="#09111d" stroke="#23324a" stroke-width="2"/><g><rect x="138" y="188" width="444" height="380" rx="26" fill="#1d4ed8" stroke="#f8fafc" stroke-width="8"/><g><circle cx="182" cy="232" r="20" fill="#f8fafc" opacity="0.94"/><circle cx="240" cy="232" r="20" fill="#f8fafc" opacity="0.94"/><circle cx="298" cy="232" r="20" fill="#f8fafc" opacity="0.94"/><circle cx="356" cy="232" r="20" fill="#f8fafc" opacity="0.94"/><circle cx="414" cy="232" r="20" fill="#f8fafc" opacity="0.94"/><circle cx="472" cy="232" r="20" fill="#f8fafc" opacity="0.94"/><circle cx="530" cy="232" r="20" fill="#f8fafc" opacity="0.94"/><circle cx="182" cy="290" r="20" fill="#f8fafc" opacity="0.94"/><circle cx="240" cy="290" r="20" fill="#f8fafc" opacity="0.94"/><circle cx="298" cy="290" r="20" fill="#f8fafc" opacity="0.94"/><circle cx="356" cy="290" r="20" fill="#f8fafc" opacity="0.94"/><circle cx="414" cy="290" r="20" fill="#f8fafc" opacity="0.94"/><circle cx="472" cy="290" r="20" fill="#f8fafc" opacity="0.94"/><circle cx="530" cy="290" r="20" fill="#f8fafc" opacity="0.94"/><circle cx="182" cy="348" r="20" fill="#f8fafc" opacity="0.94"/><circle cx="240" cy="348" r="20" fill="#f8fafc" opacity="0.94"/><circle cx="298" cy="348" r="20" fill="#f8fafc" opacity="0.94"/><circle cx="356" cy="348" r="20" fill="#f8fafc" opacity="0.94"/><circle cx="414" cy="348" r="20" fill="#f8fafc" opacity="0.94"/><circle cx="472" cy="348" r="20" fill="#f8fafc" opacity="0.94"/><circle cx="530" cy="348" r="20" fill="#f8fafc" opacity="0.94"/><circle cx="182" cy="406" r="20" fill="#f8fafc" opacity="0.94"/><circle cx="240" cy="406" r="20" fill="#f8fafc" opacity="0.94"/><circle cx="298" cy="406" r="20" fill="#f8fafc" opacity="0.94"/><circle cx="356" cy="406" r="20" fill="#f8fafc" opacity="0.94"/><circle cx="414" cy="406" r="20" fill="#f8fafc" opacity="0.94"/><circle cx="472" cy="406" r="20" fill="#f8fafc" opacity="0.94"/><circle cx="530" cy="406" r="20" fill="#f8fafc" opacity="0.94"/><circle cx="182" cy="464" r="20" fill="#f8fafc" opacity="0.94"/><circle cx="240" cy="464" r="20" fill="#f8fafc" opacity="0.94"/><circle cx="298" cy="464" r="20" fill="#f8fafc" opacity="0.94"/><circle cx="356" cy="464" r="20" fill="#f8fafc" opacity="0.94"/><circle cx="414" cy="464" r="20" fill="#f8fafc" opacity="0.94"/><circle cx="472" cy="464" r="20" fill="#f8fafc" opacity="0.94"/><circle cx="530" cy="464" r="20" fill="#f8fafc" opacity="0.94"/><circle cx="182" cy="522" r="20" fill="#f8fafc" opacity="0.94"/><circle cx="240" cy="522" r="20" fill="#f8fafc" opacity="0.94"/><circle cx="298" cy="522" r="20" fill="#f8fafc" opacity="0.94"/><circle cx="356" cy="522" r="20" fill="#f8fafc" opacity="0.94"/><circle cx="414" cy="522" r="20" fill="#f8fafc" opacity="0.94"/><circle cx="472" cy="522" r="20" fill="#f8fafc" opacity="0.94"/><circle cx="530" cy="522" r="20" fill="#f8fafc" opacity="0.94"/><circle cx="298" cy="348" r="20" fill="#ef4444"/><circle cx="356" cy="290" r="20" fill="#facc15"/><circle cx="414" cy="232" r="20" fill="#ef4444"/><circle cx="356" cy="348" r="20" fill="#facc15"/></g></g><text x="72" y="734" fill="#f8fafc" font-family="Trebuchet MS, Verdana, sans-serif" font-size="58" font-weight="700">Connect Four Game</text></svg>