<svg xmlns="http://www.w3.org/2000/svg" viewBox="0 0 720 900" role="img" aria-labelledby="title desc"><title id="title">Tic Tac Toe cover</title><desc id="desc">Game icon for Tic Tac Toe.</desc><rect width="720" height="900" fill="#0f172a"/><circle cx="96" cy="118" r="110" fill="#38bdf8" opacity="0.11"/><circle cx="616" cy="184" r="142" fill="#f472b6" opacity="0.1"/><rect x="64" y="96" width="592" height="560" rx="36" fill="#09111d" stroke="#23324a" stroke-width="2"/><g stroke="#f8fafc" stroke-width="12" stroke-linecap="round"><line x1="250" y1="186" x2="250" y2="530"/><line x1="470" y1="186" x2="470" y2="530"/><line x1="140" y1="300" x2="580" y2="300"/><line x1="140" y1="416" x2="580" y2="416"/></g><g stroke-width="14" stroke-linecap="round" fill="none"><path d="M180 220 L226 266 M226 220 L180 266" stroke="#38bdf8"/><circle cx="360" cy="244" r="28" stroke="#f472b6"/><path d="M494 220 L540 266 M540 220 L494 266" stroke="#38bdf8"/><circle cx="204" cy="356" r="28" stroke="#f472b6"/><path d="M338 330 L384 376 M384 330 L338 376" stroke="#38bdf8"/><circle cx="518" cy="356" r="28" stroke="#f472b6"/></g><text x="72" y="734" fill="#f8fafc" font-family="Trebuchet MS, Verdana, sans-serif" font-size="58" font-weight="700">Tic Tac Toe</text></svg>