<svg xmlns="http://www.w3.org/2000/svg" viewBox="0 0 720 900" role="img" aria-labelledby="title desc"><title id="title">Tetris Game cover</title><desc id="desc">Game icon for Tetris Game.</desc><rect width="720" height="900" fill="#020617"/><circle cx="96" cy="118" r="110" fill="#38bdf8" opacity="0.11"/><circle cx="616" cy="184" r="142" fill="#f43f5e" opacity="0.1"/><rect x="64" y="96" width="592" height="560" rx="36" fill="#09111d" stroke="#23324a" stroke-width="2"/><g><rect x="170" y="220" width="50" height="50" rx="10" fill="#38bdf8"/><rect x="224" y="220" width="50" height="50" rx="10" fill="#38bdf8"/><rect x="278" y="220" width="50" height="50" rx="10" fill="#38bdf8"/><rect x="332" y="220" width="50" height="50" rx="10" fill="#38bdf8"/><rect x="278" y="332" width="50" height="50" rx="10" fill="#facc15"/><rect x="332" y="332" width="50" height="50" rx="10" fill="#facc15"/><rect x="278" y="386" width="50" height="50" rx="10" fill="#facc15"/><rect x="332" y="386" width="50" height="50" rx="10" fill="#facc15"/><rect x="438" y="312" width="50" height="50" rx="10" fill="#f43f5e"/><rect x="492" y="312" width="50" height="50" rx="10" fill="#f43f5e"/><rect x="438" y="366" width="50" height="50" rx="10" fill="#f43f5e"/><rect x="492" y="366" width="50" height="50" rx="10" fill="#f43f5e"/><rect x="174" y="470" width="50" height="50" rx="10" fill="#22c55e"/><rect x="228" y="470" width="50" height="50" rx="10" fill="#22c55e"/><rect x="174" y="524" width="50" height="50" rx="10" fill="#22c55e"/><rect x="228" y="524" width="50" height="50" rx="10" fill="#22c55e"/><rect x="282" y="524" width="50" height="50" rx="10" fill="#22c55e"/><rect x="430" y="506" width="50" height="50" rx="10" fill="#a78bfa"/><rect x="484" y="506" width="50" height="50" rx="10" fill="#a78bfa"/><rect x="538" y="506" width="50" height="50" rx="10" fill="#a78bfa"/><rect x="484" y="560" width="50" height="50" rx="10" fill="#a78bfa"/></g><text x="72" y="734" fill="#f8fafc" font-family="Trebuchet MS, Verdana, sans-serif" font-size="58" font-weight="700">Tetris Game</text></svg>