<svg xmlns="http://www.w3.org/2000/svg" viewBox="0 0 720 900" role="img" aria-labelledby="title desc"><title id="title">Chess Game cover</title><desc id="desc">Game icon for Chess Game.</desc><rect width="720" height="900" fill="#0f172a"/><circle cx="96" cy="118" r="110" fill="#f8fafc" opacity="0.11"/><circle cx="616" cy="184" r="142" fill="#94a3b8" opacity="0.1"/><rect x="64" y="96" width="592" height="560" rx="36" fill="#09111d" stroke="#23324a" stroke-width="2"/><g><rect x="154" y="190" width="412" height="412" rx="24" fill="#0b1220"/><g fill="#f8fafc"><rect x="170" y="206" width="99" height="99"/><rect x="368" y="206" width="99" height="99"/><rect x="269" y="305" width="99" height="99"/><rect x="467" y="305" width="99" height="99"/><rect x="170" y="404" width="99" height="99"/><rect x="368" y="404" width="99" height="99"/><rect x="269" y="503" width="99" height="99"/><rect x="467" y="503" width="99" height="99"/></g><path d="M380 254 l36 44 -24 18 18 26 -34 0 0 118 -32 0 0-118 -34 0 18-26 -24-18z" fill="#22c55e"/></g><text x="72" y="734" fill="#f8fafc" font-family="Trebuchet MS, Verdana, sans-serif" font-size="58" font-weight="700">Chess Game</text></svg>