<svg xmlns="http://www.w3.org/2000/svg" viewBox="0 0 720 900" role="img" aria-labelledby="title desc"><title id="title">Simon Says Game cover</title><desc id="desc">Game icon for Simon Says Game.</desc><rect width="720" height="900" fill="#111827"/><circle cx="96" cy="118" r="110" fill="#ef4444" opacity="0.11"/><circle cx="616" cy="184" r="142" fill="#facc15" opacity="0.1"/><rect x="64" y="96" width="592" height="560" rx="36" fill="#09111d" stroke="#23324a" stroke-width="2"/><g><circle cx="360" cy="366" r="162" fill="#111827"/><path d="M360 204 A162 162 0 0 1 522 366 L360 366 Z" fill="#ef4444"/><path d="M522 366 A162 162 0 0 1 360 528 L360 366 Z" fill="#facc15"/><path d="M360 528 A162 162 0 0 1 198 366 L360 366 Z" fill="#22c55e"/><path d="M198 366 A162 162 0 0 1 360 204 L360 366 Z" fill="#38bdf8"/><circle cx="360" cy="366" r="64" fill="#0f172a"/></g><text x="72" y="734" fill="#f8fafc" font-family="Trebuchet MS, Verdana, sans-serif" font-size="58" font-weight="700">Simon Says Game</text></svg>