<svg xmlns="http://www.w3.org/2000/svg" viewBox="0 0 720 900" role="img" aria-labelledby="title desc"><title id="title">Minesweeper Game cover</title><desc id="desc">Game icon for Minesweeper Game.</desc><rect width="720" height="900" fill="#111827"/><circle cx="96" cy="118" r="110" fill="#e5e7eb" opacity="0.11"/><circle cx="616" cy="184" r="142" fill="#ef4444" opacity="0.1"/><rect x="64" y="96" width="592" height="560" rx="36" fill="#09111d" stroke="#23324a" stroke-width="2"/><g><rect x="162" y="188" width="396" height="396" rx="20" fill="#cbd5e1"/><g stroke="#94a3b8"><line x1="162" y1="188" x2="162" y2="584"/><line x1="162" y1="188" x2="558" y2="188"/><line x1="228" y1="188" x2="228" y2="584"/><line x1="162" y1="254" x2="558" y2="254"/><line x1="294" y1="188" x2="294" y2="584"/><line x1="162" y1="320" x2="558" y2="320"/><line x1="360" y1="188" x2="360" y2="584"/><line x1="162" y1="386" x2="558" y2="386"/><line x1="426" y1="188" x2="426" y2="584"/><line x1="162" y1="452" x2="558" y2="452"/><line x1="492" y1="188" x2="492" y2="584"/><line x1="162" y1="518" x2="558" y2="518"/></g><circle cx="360" cy="386" r="42" fill="#ef4444"/><line x1="360" y1="386" x2="442" y2="386" stroke="#111827" stroke-width="10" stroke-linecap="round"/><line x1="360" y1="386" x2="417.9827560572969" y2="443.9827560572969" stroke="#111827" stroke-width="10" stroke-linecap="round"/><line x1="360" y1="386" x2="360" y2="468" stroke="#111827" stroke-width="10" stroke-linecap="round"/><line x1="360" y1="386" x2="302.0172439427031" y2="443.9827560572969" stroke="#111827" stroke-width="10" stroke-linecap="round"/><text x="274" y="522" fill="#22c55e" font-size="88" font-family="Trebuchet MS, sans-serif" font-weight="700">1</text><text x="418" y="522" fill="#e5e7eb" font-size="88" font-family="Trebuchet MS, sans-serif" font-weight="700">2</text></g><text x="72" y="734" fill="#f8fafc" font-family="Trebuchet MS, Verdana, sans-serif" font-size="58" font-weight="700">Minesweeper Game</text></svg>