<svg xmlns="http://www.w3.org/2000/svg" viewBox="0 0 720 900" role="img" aria-labelledby="title desc"><title id="title">Breakout Game cover</title><desc id="desc">Game icon for Breakout Game.</desc><rect width="720" height="900" fill="#111827"/><circle cx="96" cy="118" r="110" fill="#f472b6" opacity="0.11"/><circle cx="616" cy="184" r="142" fill="#38bdf8" opacity="0.1"/><rect x="64" y="96" width="592" height="560" rx="36" fill="#09111d" stroke="#23324a" stroke-width="2"/><g><rect x="128" y="180" width="62" height="22" rx="8" fill="#f472b6"/><rect x="206" y="180" width="62" height="22" rx="8" fill="#f472b6"/><rect x="284" y="180" width="62" height="22" rx="8" fill="#f472b6"/><rect x="362" y="180" width="62" height="22" rx="8" fill="#f472b6"/><rect x="440" y="180" width="62" height="22" rx="8" fill="#f472b6"/><rect x="518" y="180" width="62" height="22" rx="8" fill="#f472b6"/><rect x="128" y="214" width="62" height="22" rx="8" fill="#38bdf8"/><rect x="206" y="214" width="62" height="22" rx="8" fill="#38bdf8"/><rect x="284" y="214" width="62" height="22" rx="8" fill="#38bdf8"/><rect x="362" y="214" width="62" height="22" rx="8" fill="#38bdf8"/><rect x="440" y="214" width="62" height="22" rx="8" fill="#38bdf8"/><rect x="518" y="214" width="62" height="22" rx="8" fill="#38bdf8"/><rect x="128" y="248" width="62" height="22" rx="8" fill="#facc15"/><rect x="206" y="248" width="62" height="22" rx="8" fill="#facc15"/><rect x="284" y="248" width="62" height="22" rx="8" fill="#facc15"/><rect x="362" y="248" width="62" height="22" rx="8" fill="#facc15"/><rect x="440" y="248" width="62" height="22" rx="8" fill="#facc15"/><rect x="518" y="248" width="62" height="22" rx="8" fill="#facc15"/><rect x="128" y="282" width="62" height="22" rx="8" fill="#f472b6"/><rect x="206" y="282" width="62" height="22" rx="8" fill="#f472b6"/><rect x="284" y="282" width="62" height="22" rx="8" fill="#f472b6"/><rect x="362" y="282" width="62" height="22" rx="8" fill="#f472b6"/><rect x="440" y="282" width="62" height="22" rx="8" fill="#f472b6"/><rect x="518" y="282" width="62" height="22" rx="8" fill="#f472b6"/><rect x="128" y="316" width="62" height="22" rx="8" fill="#38bdf8"/><rect x="206" y="316" width="62" height="22" rx="8" fill="#38bdf8"/><rect x="284" y="316" width="62" height="22" rx="8" fill="#38bdf8"/><rect x="362" y="316" width="62" height="22" rx="8" fill="#38bdf8"/><rect x="440" y="316" width="62" height="22" rx="8" fill="#38bdf8"/><rect x="518" y="316" width="62" height="22" rx="8" fill="#38bdf8"/><circle cx="360" cy="454" r="18" fill="#fff"/><rect x="274" y="530" width="172" height="20" rx="10" fill="#38bdf8"/></g><text x="72" y="734" fill="#f8fafc" font-family="Trebuchet MS, Verdana, sans-serif" font-size="58" font-weight="700">Breakout Game</text></svg>