<svg xmlns="http://www.w3.org/2000/svg" viewBox="0 0 720 900" role="img" aria-labelledby="title desc"><title id="title">Crossy Road Game cover</title><desc id="desc">Game icon for Crossy Road Game.</desc><rect width="720" height="900" fill="#14281d"/><circle cx="96" cy="118" r="110" fill="#f8fafc" opacity="0.11"/><circle cx="616" cy="184" r="142" fill="#84cc16" opacity="0.1"/><rect x="64" y="96" width="592" height="560" rx="36" fill="#09111d" stroke="#23324a" stroke-width="2"/><g><rect x="124" y="238" width="472" height="108" rx="18" fill="#111827"/><rect x="124" y="378" width="472" height="108" rx="18" fill="#111827"/><rect x="124" y="518" width="472" height="78" rx="18" fill="#2563eb"/><g stroke="#facc15" stroke-width="12"><line x1="170" y1="292" x2="214" y2="292"/><line x1="270" y1="292" x2="314" y2="292"/><line x1="370" y1="292" x2="414" y2="292"/><line x1="470" y1="292" x2="514" y2="292"/><line x1="210" y1="432" x2="254" y2="432"/><line x1="310" y1="432" x2="354" y2="432"/><line x1="410" y1="432" x2="454" y2="432"/><line x1="510" y1="432" x2="554" y2="432"/></g><g><rect x="298" y="490" width="124" height="88" rx="24" fill="#fff"/><rect x="330" y="458" width="60" height="44" rx="18" fill="#fff"/><circle cx="344" cy="530" r="8" fill="#111"/><circle cx="376" cy="530" r="8" fill="#111"/><polygon points="360,542 378,560 342,560" fill="#f97316"/></g></g><text x="72" y="734" fill="#f8fafc" font-family="Trebuchet MS, Verdana, sans-serif" font-size="58" font-weight="700">Crossy Road Game</text></svg>