<svg xmlns="http://www.w3.org/2000/svg" viewBox="0 0 720 900" role="img" aria-labelledby="title desc"><title id="title">Sudoku Game cover</title><desc id="desc">Game icon for Sudoku Game.</desc><rect width="720" height="900" fill="#082f49"/><circle cx="96" cy="118" r="110" fill="#f8fafc" opacity="0.11"/><circle cx="616" cy="184" r="142" fill="#38bdf8" opacity="0.1"/><rect x="64" y="96" width="592" height="560" rx="36" fill="#09111d" stroke="#23324a" stroke-width="2"/><g><rect x="168" y="160" width="384" height="384" fill="#fff" rx="18"/><g stroke="#082f49" stroke-width="4"><line x1="168" y1="160" x2="168" y2="544"/><line x1="168" y1="160" x2="552" y2="160"/><line x1="296" y1="160" x2="296" y2="544"/><line x1="168" y1="288" x2="552" y2="288"/><line x1="424" y1="160" x2="424" y2="544"/><line x1="168" y1="416" x2="552" y2="416"/><line x1="552" y1="160" x2="552" y2="544"/><line x1="168" y1="544" x2="552" y2="544"/></g><g stroke="#082f49" stroke-width="1.5" opacity="0.4"><line x1="210.666" y1="160" x2="210.666" y2="544"/><line x1="168" y1="202.666" x2="552" y2="202.666"/><line x1="253.332" y1="160" x2="253.332" y2="544"/><line x1="168" y1="245.332" x2="552" y2="245.332"/><line x1="338.664" y1="160" x2="338.664" y2="544"/><line x1="168" y1="330.664" x2="552" y2="330.664"/><line x1="381.33" y1="160" x2="381.33" y2="544"/><line x1="168" y1="373.33" x2="552" y2="373.33"/><line x1="466.662" y1="160" x2="466.662" y2="544"/><line x1="168" y1="458.662" x2="552" y2="458.662"/><line x1="509.328" y1="160" x2="509.328" y2="544"/><line x1="168" y1="501.328" x2="552" y2="501.328"/></g><g fill="#38bdf8" font-family="Trebuchet MS, sans-serif" font-size="58" font-weight="700"><text x="214" y="254">9</text><text x="362" y="254">4</text><text x="246" y="420">7</text><text x="406" y="492">2</text></g></g><text x="72" y="734" fill="#f8fafc" font-family="Trebuchet MS, Verdana, sans-serif" font-size="58" font-weight="700">Sudoku Game</text></svg>