<svg xmlns="http://www.w3.org/2000/svg" viewBox="0 0 720 900" role="img" aria-labelledby="title desc"><title id="title">Pac Man Game cover</title><desc id="desc">Game icon for Pac Man Game.</desc><rect width="720" height="900" fill="#05070f"/><circle cx="96" cy="118" r="110" fill="#facc15" opacity="0.11"/><circle cx="616" cy="184" r="142" fill="#60a5fa" opacity="0.1"/><rect x="64" y="96" width="592" height="560" rx="36" fill="#09111d" stroke="#23324a" stroke-width="2"/><g><path d="M170 286 A92 92 0 1 1 170 470 L236 378 Z" fill="#facc15"/><circle cx="188" cy="326" r="8" fill="#111"/><circle cx="344" cy="378" r="12" fill="#fff"/><circle cx="388" cy="378" r="12" fill="#fff"/><circle cx="432" cy="378" r="12" fill="#fff"/><path d="M506 312 h38 v38 h-12 v12 h-14 v-12 h-12z" fill="#60a5fa"/><circle cx="522" cy="352" r="8" fill="#fff"/><circle cx="542" cy="352" r="8" fill="#fff"/><path d="M506 366 q18 24 38 0 v48 h-38z" fill="#f43f5e"/></g><text x="72" y="734" fill="#f8fafc" font-family="Trebuchet MS, Verdana, sans-serif" font-size="58" font-weight="700">Pac Man Game</text></svg>