<svg xmlns="http://www.w3.org/2000/svg" viewBox="0 0 720 900" role="img" aria-labelledby="title desc"><title id="title">Sliding Puzzle Game cover</title><desc id="desc">Game icon for Sliding Puzzle Game.</desc><rect width="720" height="900" fill="#0f172a"/><circle cx="96" cy="118" r="110" fill="#f8fafc" opacity="0.11"/><circle cx="616" cy="184" r="142" fill="#38bdf8" opacity="0.1"/><rect x="64" y="96" width="592" height="560" rx="36" fill="#09111d" stroke="#23324a" stroke-width="2"/><g><rect x="190" y="216" width="96" height="96" rx="18" fill="#f8fafc"/><rect x="304" y="216" width="96" height="96" rx="18" fill="#38bdf8"/><rect x="418" y="216" width="96" height="96" rx="18" fill="#f59e0b"/><rect x="190" y="216" width="96" height="96" rx="18" fill="#38bdf8"/><rect x="304" y="216" width="96" height="96" rx="18" fill="#f59e0b"/><rect x="418" y="216" width="96" height="96" rx="18" fill="#f8fafc"/><rect x="190" y="216" width="96" height="96" rx="18" fill="#f59e0b"/><rect x="304" y="216" width="96" height="96" rx="18" fill="#f8fafc"/><rect x="418" y="216" width="96" height="96" rx="18" fill="#38bdf8"/><g fill="#f8fafc" font-size="42" font-family="Trebuchet MS, sans-serif" font-weight="700" text-anchor="middle"><text x="238" y="276">1</text><text x="352" y="276">2</text><text x="466" y="276">3</text><text x="238" y="390">4</text><text x="352" y="390">5</text><text x="466" y="390">6</text><text x="238" y="504">7</text><text x="352" y="504">8</text></g></g><text x="72" y="734" fill="#f8fafc" font-family="Trebuchet MS, Verdana, sans-serif" font-size="58" font-weight="700">Sliding Puzzle Game</text></svg>