<svg xmlns="http://www.w3.org/2000/svg" viewBox="0 0 720 900" role="img" aria-labelledby="title desc"><title id="title">Wordle Game cover</title><desc id="desc">Game icon for Wordle Game.</desc><rect width="720" height="900" fill="#111827"/><circle cx="96" cy="118" r="110" fill="#22c55e" opacity="0.11"/><circle cx="616" cy="184" r="142" fill="#facc15" opacity="0.1"/><rect x="64" y="96" width="592" height="560" rx="36" fill="#09111d" stroke="#23324a" stroke-width="2"/><g><rect x="136" y="258" width="76" height="76" rx="12" fill="#1f2937" stroke="#374151"/><rect x="228" y="258" width="76" height="76" rx="12" fill="#1f2937" stroke="#374151"/><rect x="320" y="258" width="76" height="76" rx="12" fill="#1f2937" stroke="#374151"/><rect x="412" y="258" width="76" height="76" rx="12" fill="#1f2937" stroke="#374151"/><rect x="504" y="258" width="76" height="76" rx="12" fill="#1f2937" stroke="#374151"/><text x="174" y="312" fill="#f8fafc" font-size="42" font-family="Trebuchet MS, sans-serif" font-weight="700" text-anchor="middle">W</text><text x="266" y="312" fill="#f8fafc" font-size="42" font-family="Trebuchet MS, sans-serif" font-weight="700" text-anchor="middle">O</text><text x="358" y="312" fill="#f8fafc" font-size="42" font-family="Trebuchet MS, sans-serif" font-weight="700" text-anchor="middle">R</text><text x="450" y="312" fill="#f8fafc" font-size="42" font-family="Trebuchet MS, sans-serif" font-weight="700" text-anchor="middle">D</text><text x="542" y="312" fill="#f8fafc" font-size="42" font-family="Trebuchet MS, sans-serif" font-weight="700" text-anchor="middle">S</text><rect x="228" y="372" width="76" height="76" rx="12" fill="#22c55e"/><rect x="320" y="372" width="76" height="76" rx="12" fill="#facc15"/><rect x="412" y="372" width="76" height="76" rx="12" fill="#6b7280"/></g><text x="72" y="734" fill="#f8fafc" font-family="Trebuchet MS, Verdana, sans-serif" font-size="58" font-weight="700">Wordle Game</text></svg>