<svg xmlns="http://www.w3.org/2000/svg" viewBox="0 0 720 900" role="img" aria-labelledby="title desc"><title id="title">Speed Typing Game cover</title><desc id="desc">Game icon for Speed Typing Game.</desc><rect width="720" height="900" fill="#0f172a"/><circle cx="96" cy="118" r="110" fill="#38bdf8" opacity="0.11"/><circle cx="616" cy="184" r="142" fill="#a78bfa" opacity="0.1"/><rect x="64" y="96" width="592" height="560" rx="36" fill="#09111d" stroke="#23324a" stroke-width="2"/><g><rect x="132" y="270" width="456" height="230" rx="28" fill="#1f2937"/><g fill="#e5e7eb"><rect x="164" y="302" width="48" height="18" rx="6"/><rect x="228" y="302" width="48" height="18" rx="6"/><rect x="292" y="302" width="48" height="18" rx="6"/><rect x="356" y="302" width="48" height="18" rx="6"/><rect x="420" y="302" width="48" height="18" rx="6"/><rect x="484" y="302" width="48" height="18" rx="6"/><rect x="164" y="330" width="48" height="18" rx="6"/><rect x="228" y="330" width="48" height="18" rx="6"/><rect x="292" y="330" width="48" height="18" rx="6"/><rect x="356" y="330" width="48" height="18" rx="6"/><rect x="420" y="330" width="48" height="18" rx="6"/><rect x="484" y="330" width="48" height="18" rx="6"/><rect x="164" y="358" width="48" height="18" rx="6"/><rect x="228" y="358" width="48" height="18" rx="6"/><rect x="292" y="358" width="48" height="18" rx="6"/><rect x="356" y="358" width="48" height="18" rx="6"/><rect x="420" y="358" width="48" height="18" rx="6"/><rect x="484" y="358" width="48" height="18" rx="6"/><rect x="164" y="386" width="48" height="18" rx="6"/><rect x="228" y="386" width="48" height="18" rx="6"/><rect x="292" y="386" width="48" height="18" rx="6"/><rect x="356" y="386" width="48" height="18" rx="6"/><rect x="420" y="386" width="48" height="18" rx="6"/><rect x="484" y="386" width="48" height="18" rx="6"/><rect x="164" y="414" width="48" height="18" rx="6"/><rect x="228" y="414" width="48" height="18" rx="6"/><rect x="292" y="414" width="48" height="18" rx="6"/><rect x="356" y="414" width="48" height="18" rx="6"/><rect x="420" y="414" width="48" height="18" rx="6"/><rect x="484" y="414" width="48" height="18" rx="6"/><rect x="164" y="442" width="48" height="18" rx="6"/><rect x="228" y="442" width="48" height="18" rx="6"/><rect x="292" y="442" width="48" height="18" rx="6"/><rect x="356" y="442" width="48" height="18" rx="6"/><rect x="420" y="442" width="48" height="18" rx="6"/><rect x="484" y="442" width="48" height="18" rx="6"/></g><path d="M162 560 h160" stroke="#38bdf8" stroke-width="10" stroke-linecap="round"/><path d="M362 560 h110" stroke="#a78bfa" stroke-width="10" stroke-linecap="round"/><path d="M504 560 h56" stroke="#f8fafc" stroke-width="10" stroke-linecap="round"/></g><text x="72" y="734" fill="#f8fafc" font-family="Trebuchet MS, Verdana, sans-serif" font-size="58" font-weight="700">Speed Typing Game</text></svg>